<svg width="190" height="46" viewBox="0 0 190 46" fill="none" xmlns="http://www.w3.org/2000/svg">
	<path d="M0.773199 35.668V0.758876H7.09706V30.3668H22.4721V35.668H0.773199ZM35.2221 36.1964C33.563 36.1964 32.0687 35.9009 30.7391 35.31C29.4209 34.7077 28.3755 33.8214 27.6027 32.6509C26.8414 31.4805 26.4607 30.0373 26.4607 28.3214C26.4607 26.8441 26.7334 25.6225 27.2789 24.6566C27.8243 23.6907 28.5687 22.918 29.5118 22.3384C30.455 21.7589 31.5175 21.3214 32.6993 21.0259C33.8925 20.7191 35.1255 20.4975 36.3982 20.3611C37.9323 20.2021 39.1766 20.06 40.1312 19.935C41.0857 19.7986 41.7789 19.5941 42.2107 19.3214C42.6539 19.0373 42.8755 18.5998 42.8755 18.0089V17.9066C42.8755 16.6225 42.4948 15.6282 41.7334 14.9236C40.9721 14.2191 39.8755 13.8668 38.4437 13.8668C36.9323 13.8668 35.7334 14.1964 34.8471 14.8555C33.9721 15.5146 33.3812 16.293 33.0743 17.1907L27.313 16.3725C27.7675 14.7816 28.5175 13.4521 29.563 12.3839C30.6084 11.3043 31.8868 10.4975 33.3982 9.96342C34.9096 9.41797 36.58 9.14524 38.4096 9.14524C39.6709 9.14524 40.9266 9.29297 42.1766 9.58842C43.4266 9.88388 44.5687 10.3725 45.6027 11.0543C46.6368 11.7248 47.4664 12.6396 48.0914 13.7986C48.7277 14.9577 49.0459 16.4066 49.0459 18.1452V35.668H43.1141V32.0714H42.9096C42.5346 32.7986 42.0062 33.4805 41.3243 34.1168C40.6539 34.7418 39.8073 35.2475 38.7846 35.6339C37.7732 36.0089 36.5857 36.1964 35.2221 36.1964ZM36.8243 31.6623C38.063 31.6623 39.1368 31.418 40.0459 30.9293C40.955 30.4293 41.6539 29.7702 42.1425 28.9521C42.6425 28.1339 42.8925 27.2418 42.8925 26.2759V23.1907C42.6993 23.3498 42.3698 23.4975 41.9039 23.6339C41.4493 23.7702 40.938 23.8896 40.3698 23.9918C39.8016 24.0941 39.2391 24.185 38.6823 24.2646C38.1255 24.3441 37.6425 24.4123 37.2334 24.4691C36.313 24.5941 35.4891 24.7986 34.7618 25.0827C34.0346 25.3668 33.4607 25.7646 33.0402 26.2759C32.6198 26.7759 32.4096 27.4236 32.4096 28.2191C32.4096 29.3555 32.8243 30.2134 33.6539 30.793C34.4834 31.3725 35.5402 31.6623 36.8243 31.6623ZM55.2505 45.4861V9.48615H61.3186V13.8157H61.6766C61.9948 13.1793 62.4437 12.5032 63.0232 11.7873C63.6027 11.06 64.3868 10.4407 65.3755 9.92933C66.3641 9.4066 67.6255 9.14524 69.1596 9.14524C71.1823 9.14524 73.0061 9.66229 74.6311 10.6964C76.2675 11.7191 77.563 13.2361 78.5175 15.2475C79.4834 17.2475 79.9664 19.7021 79.9664 22.6111C79.9664 25.4861 79.4948 27.9293 78.5516 29.9407C77.6084 31.9521 76.3243 33.4861 74.6993 34.543C73.0743 35.5998 71.2334 36.1282 69.1766 36.1282C67.6766 36.1282 66.4323 35.8782 65.4436 35.3782C64.455 34.8782 63.6596 34.2759 63.0573 33.5714C62.4664 32.8555 62.0061 32.1793 61.6766 31.543H61.4209V45.4861H55.2505ZM61.3016 22.5771C61.3016 24.2702 61.5402 25.7532 62.0175 27.0259C62.5061 28.2986 63.205 29.293 64.1141 30.0089C65.0346 30.7134 66.1482 31.0657 67.455 31.0657C68.8186 31.0657 69.9607 30.7021 70.8811 29.9748C71.8016 29.2361 72.4948 28.2305 72.9607 26.9577C73.438 25.6736 73.6766 24.2134 73.6766 22.5771C73.6766 20.9521 73.4437 19.5089 72.9777 18.2475C72.5118 16.9861 71.8187 15.9975 70.8982 15.2816C69.9777 14.5657 68.83 14.2077 67.455 14.2077C66.1368 14.2077 65.0175 14.5543 64.0971 15.2475C63.1766 15.9407 62.4777 16.9123 62.0005 18.1623C61.5346 19.4123 61.3016 20.8839 61.3016 22.5771ZM115.404 12.5373H109.029C108.847 11.4918 108.512 10.5657 108.023 9.75888C107.535 8.94069 106.927 8.24751 106.199 7.67933C105.472 7.11115 104.643 6.68501 103.711 6.40092C102.79 6.10547 101.796 5.95774 100.728 5.95774C98.83 5.95774 97.1482 6.43501 95.6823 7.38956C94.2164 8.33274 93.0686 9.7191 92.2391 11.5486C91.4096 13.3668 90.9948 15.5884 90.9948 18.2134C90.9948 20.8839 91.4096 23.1339 92.2391 24.9634C93.08 26.7816 94.2277 28.1566 95.6823 29.0884C97.1482 30.0089 98.8243 30.4691 100.711 30.4691C101.756 30.4691 102.733 30.3327 103.643 30.06C104.563 29.7759 105.387 29.3611 106.114 28.8157C106.853 28.2702 107.472 27.5998 107.972 26.8043C108.483 26.0089 108.836 25.0998 109.029 24.0771L115.404 24.1111C115.165 25.7702 114.648 27.3271 113.853 28.7816C113.069 30.2361 112.04 31.5202 110.768 32.6339C109.495 33.7361 108.006 34.5998 106.302 35.2248C104.597 35.8384 102.705 36.1452 100.625 36.1452C97.5573 36.1452 94.8186 35.435 92.4096 34.0146C90.0005 32.5941 88.1027 30.543 86.7164 27.8611C85.33 25.1793 84.6368 21.9634 84.6368 18.2134C84.6368 14.4521 85.3357 11.2361 86.7334 8.56569C88.1311 5.88388 90.0346 3.83274 92.4436 2.41228C94.8527 0.99183 97.58 0.281603 100.625 0.281603C102.569 0.281603 104.375 0.55433 106.046 1.09978C107.716 1.64524 109.205 2.44638 110.512 3.50319C111.819 4.54865 112.893 5.83274 113.733 7.35547C114.586 8.86683 115.143 10.5941 115.404 12.5373ZM128.456 36.1964C126.797 36.1964 125.303 35.9009 123.973 35.31C122.655 34.7077 121.61 33.8214 120.837 32.6509C120.076 31.4805 119.695 30.0373 119.695 28.3214C119.695 26.8441 119.968 25.6225 120.513 24.6566C121.059 23.6907 121.803 22.918 122.746 22.3384C123.689 21.7589 124.752 21.3214 125.934 21.0259C127.127 20.7191 128.36 20.4975 129.633 20.3611C131.167 20.2021 132.411 20.06 133.366 19.935C134.32 19.7986 135.013 19.5941 135.445 19.3214C135.888 19.0373 136.11 18.5998 136.11 18.0089V17.9066C136.11 16.6225 135.729 15.6282 134.968 14.9236C134.206 14.2191 133.11 13.8668 131.678 13.8668C130.167 13.8668 128.968 14.1964 128.081 14.8555C127.206 15.5146 126.616 16.293 126.309 17.1907L120.547 16.3725C121.002 14.7816 121.752 13.4521 122.797 12.3839C123.843 11.3043 125.121 10.4975 126.633 9.96342C128.144 9.41797 129.814 9.14524 131.644 9.14524C132.905 9.14524 134.161 9.29297 135.411 9.58842C136.661 9.88388 137.803 10.3725 138.837 11.0543C139.871 11.7248 140.701 12.6396 141.326 13.7986C141.962 14.9577 142.28 16.4066 142.28 18.1452V35.668H136.348V32.0714H136.144C135.769 32.7986 135.241 33.4805 134.559 34.1168C133.888 34.7418 133.042 35.2475 132.019 35.6339C131.008 36.0089 129.82 36.1964 128.456 36.1964ZM130.059 31.6623C131.297 31.6623 132.371 31.418 133.28 30.9293C134.189 30.4293 134.888 29.7702 135.377 28.9521C135.877 28.1339 136.127 27.2418 136.127 26.2759V23.1907C135.934 23.3498 135.604 23.4975 135.138 23.6339C134.684 23.7702 134.172 23.8896 133.604 23.9918C133.036 24.0941 132.473 24.185 131.917 24.2646C131.36 24.3441 130.877 24.4123 130.468 24.4691C129.547 24.5941 128.723 24.7986 127.996 25.0827C127.269 25.3668 126.695 25.7646 126.275 26.2759C125.854 26.7759 125.644 27.4236 125.644 28.2191C125.644 29.3555 126.059 30.2134 126.888 30.793C127.718 31.3725 128.775 31.6623 130.059 31.6623ZM148.485 35.668V9.48615H154.468V13.8498H154.741C155.218 12.3384 156.036 11.1736 157.195 10.3555C158.366 9.52592 159.701 9.11115 161.201 9.11115C161.542 9.11115 161.922 9.12819 162.343 9.16228C162.775 9.18501 163.133 9.22478 163.417 9.2816V14.9577C163.155 14.8668 162.741 14.7873 162.172 14.7191C161.616 14.6396 161.076 14.5998 160.553 14.5998C159.428 14.5998 158.417 14.8441 157.519 15.3327C156.633 15.81 155.934 16.4748 155.422 17.3271C154.911 18.1793 154.655 19.1623 154.655 20.2759V35.668H148.485ZM178.029 36.1793C175.404 36.1793 173.137 35.6339 171.228 34.543C169.33 33.4407 167.87 31.8839 166.847 29.8725C165.824 27.8498 165.313 25.4691 165.313 22.7305C165.313 20.0373 165.824 17.6736 166.847 15.6396C167.881 13.5941 169.324 12.0032 171.177 10.8668C173.029 9.7191 175.205 9.14524 177.705 9.14524C179.319 9.14524 180.841 9.4066 182.273 9.92933C183.716 10.4407 184.989 11.2361 186.091 12.3157C187.205 13.3952 188.08 14.7702 188.716 16.4407C189.353 18.0998 189.671 20.0771 189.671 22.3725V24.2646H168.211V20.1055H183.756C183.745 18.9236 183.489 17.8725 182.989 16.9521C182.489 16.0202 181.79 15.2873 180.893 14.7532C180.006 14.2191 178.972 13.9521 177.79 13.9521C176.529 13.9521 175.421 14.2589 174.466 14.8725C173.512 15.4748 172.768 16.2702 172.233 17.2589C171.711 18.2361 171.444 19.31 171.432 20.4805V24.1111C171.432 25.6339 171.711 26.9407 172.268 28.0316C172.824 29.1111 173.603 29.9407 174.603 30.5202C175.603 31.0884 176.773 31.3725 178.114 31.3725C179.012 31.3725 179.824 31.2475 180.552 30.9975C181.279 30.7361 181.91 30.3555 182.444 29.8555C182.978 29.3555 183.381 28.7361 183.654 27.9975L189.415 28.6452C189.052 30.168 188.358 31.4975 187.336 32.6339C186.324 33.7589 185.029 34.6339 183.449 35.2589C181.87 35.8725 180.063 36.1793 178.029 36.1793Z" fill="url(#paint0_linear_1_3)"/>
	<defs>
	<linearGradient id="paint0_linear_1_3" x1="99.608" y1="-10.332" x2="99.608" y2="34.5851" gradientUnits="userSpaceOnUse">
	<stop offset="0.182193" stop-color="#2AB8C1"/>
	<stop offset="0.9999" stop-color="#F9FDFD"/>
	<stop offset="1" stop-color="white"/>
	<stop offset="1" stop-color="white"/>
	</linearGradient>
	</defs>
	</svg>
	